<svg width="15" height="24" fill="none" xmlns="http://www.w3.org/2000/svg"><path d="M7.529.29c2.18 0 3.93.56 5.25 1.68 1.32 1.12 1.98 2.72 1.98 4.8 0 1.82-.61 3.26-1.83 4.32-1.2 1.06-2.79 1.61-4.77 1.65l-.15 2.19h-5.19l-.18-5.97h2.16c1.36 0 2.4-.15 3.12-.45.72-.32 1.08-.88 1.08-1.68 0-.54-.15-.96-.45-1.26-.28-.32-.67-.48-1.17-.48-.56 0-.99.17-1.29.51-.28.32-.42.76-.42 1.32H.119c-.04-1.22.21-2.33.75-3.33.56-1.02 1.4-1.82 2.52-2.4 1.12-.6 2.5-.9 4.14-.9Zm-2.07 22.95c-1.04 0-1.88-.28-2.52-.84-.62-.58-.93-1.31-.93-2.19 0-.88.31-1.61.93-2.19.64-.58 1.48-.87 2.52-.87 1.02 0 1.84.29 2.46.87.64.58.96 1.31.96 2.19 0 .86-.32 1.58-.96 2.16-.62.58-1.44.87-2.46.87Z" fill="#fff"/></svg>