<?xml version="1.0" standalone="no"?>
<!DOCTYPE svg PUBLIC "-//W3C//DTD SVG 20010904//EN"
 "http://www.w3.org/TR/2001/REC-SVG-20010904/DTD/svg10.dtd">
<svg version="1.0" xmlns="http://www.w3.org/2000/svg"
 width="2815.000000pt" height="3663.000000pt" viewBox="0 0 2815.000000 3663.000000"
 preserveAspectRatio="xMidYMid meet">

<g transform="translate(0.000000,3663.000000) scale(0.100000,-0.100000)"
fill="#000000" stroke="none">
<path d="M12570 36083 c-1431 -52 -2756 -585 -3813 -1533 -727 -651 -1284
-1470 -1627 -2391 l-32 -87 -116 -17 c-276 -40 -640 -113 -782 -155 -115 -34
-109 -24 -237 -375 -71 -195 -163 -497 -212 -693 -75 -297 -145 -701 -157
-902 -6 -95 -6 -95 22 -121 18 -16 138 -70 304 -137 322 -129 541 -220 547
-225 2 -2 -22 -139 -52 -303 -93 -500 -205 -1221 -256 -1650 l-12 -101 -266 5
c-294 5 -490 -9 -764 -54 -869 -142 -1902 -574 -2824 -1180 -95 -63 -179 -124
-186 -136 -8 -13 -71 -176 -140 -363 -69 -187 -169 -457 -223 -600 -53 -143
-149 -404 -214 -580 -65 -176 -200 -540 -300 -810 -421 -1137 -422 -1138 -416
-1171 7 -36 40 -70 76 -79 15 -3 116 15 245 44 121 27 221 48 223 47 2 -3 -50
-201 -313 -1191 -344 -1298 -328 -1231 -323 -1305 6 -74 44 -170 95 -237 43
-56 137 -120 209 -142 125 -39 975 -82 3179 -162 171 -6 311 -12 312 -12 1 -1
-26 -60 -59 -132 -101 -220 -326 -747 -425 -1000 -617 -1565 -1060 -3144
-1386 -4946 l-54 -295 13 -130 c27 -259 73 -522 140 -789 310 -1238 1053
-2252 2274 -3099 69 -47 147 -103 175 -122 67 -49 96 -58 139 -44 70 23 89
110 37 167 -35 39 -74 137 -136 344 -175 585 -317 1387 -394 2229 -31 338 -61
802 -61 950 l0 65 72 90 c40 50 124 142 187 205 458 455 1020 703 1536 676
384 -19 525 -126 1015 -771 306 -402 449 -566 624 -712 306 -257 582 -353 981
-340 232 7 364 38 562 132 347 164 645 468 992 1013 57 89 106 162 110 162 4
0 46 -170 95 -378 48 -207 155 -665 237 -1017 83 -352 220 -937 305 -1300 85
-363 198 -846 251 -1072 53 -227 94 -415 91 -418 -2 -3 -107 33 -231 80 -125
47 -241 85 -257 85 -18 0 -42 -11 -61 -28 -26 -23 -32 -36 -31 -68 0 -36 44
-282 291 -1619 348 -1888 491 -2668 491 -2677 0 -5 -33 -8 -73 -8 -114 0 -385
-28 -572 -60 -1287 -216 -2564 -856 -3730 -1868 -246 -214 -533 -492 -545
-527 -12 -36 3 -88 32 -112 22 -19 297 -88 548 -137 655 -130 1391 -211 2345
-258 330 -16 1458 -16 1775 0 866 45 1512 119 2034 234 80 17 147 30 149 27 2
-2 36 -150 76 -329 40 -179 77 -340 83 -358 13 -45 47 -63 198 -112 532 -170
1297 -276 2390 -332 322 -16 1456 -16 1790 0 1163 57 2057 170 2740 347 114
29 139 39 163 65 30 34 34 67 13 109 -25 48 -430 424 -696 646 -815 680 -1704
1189 -2593 1486 -486 163 -945 262 -1382 299 -66 5 -148 10 -183 10 -60 0 -62
1 -57 22 3 13 39 208 80 433 41 226 133 727 204 1115 72 388 157 854 191 1037
33 183 116 636 185 1008 69 372 125 686 125 697 0 11 -16 36 -35 55 -31 31
-40 35 -73 30 -33 -4 -354 -121 -1146 -418 -131 -49 -244 -89 -250 -89 -7 0
-22 44 -35 103 -12 56 -97 417 -187 802 -90 385 -239 1020 -330 1410 -92 391
-240 1023 -329 1405 -90 382 -236 1006 -324 1385 -89 380 -164 697 -167 707
-3 12 13 27 58 54 172 103 314 230 481 429 366 436 717 667 1074 706 197 22
314 -15 435 -138 136 -138 201 -244 459 -757 106 -209 221 -430 257 -491 366
-621 754 -924 1295 -1010 127 -20 396 -20 552 0 459 60 1086 282 1722 610 441
228 823 460 1638 995 529 347 856 550 1024 635 l54 27 111 -115 c62 -64 126
-120 144 -127 34 -13 31 -14 267 37 14 3 25 -4 37 -25 22 -36 74 -58 171 -73
40 -6 78 -14 85 -18 33 -16 462 -1012 677 -1571 455 -1181 783 -2278 919
-3072 51 -296 86 -618 86 -794 0 -46 5 -95 12 -109 21 -46 93 -69 138 -45 43
23 285 393 448 683 554 992 890 2181 1009 3567 25 296 26 1170 0 1450 -81 894
-267 1598 -533 2018 -823 1296 -1695 2386 -2735 3418 -330 328 -489 477 -763
719 -1293 1139 -2658 2022 -4130 2672 -873 385 -1811 671 -2623 799 -95 15
-173 31 -173 36 0 5 47 122 104 261 57 139 148 358 201 487 173 419 647 1555
650 1558 2 2 187 -26 412 -63 427 -69 438 -69 475 -28 10 10 69 154 132 318
130 342 229 600 462 1208 90 235 164 436 164 447 0 51 -253 497 -466 821 l-83
126 14 94 c28 190 46 430 52 689 31 1454 -460 2854 -1393 3970 -939 1124
-2248 1864 -3684 2084 -381 59 -765 82 -1120 69z m780 -257 c431 -49 771 -121
1185 -251 458 -144 965 -386 1387 -663 65 -42 118 -79 118 -82 0 -3 -26 -15
-59 -28 -140 -54 -328 -207 -483 -391 -252 -301 -520 -815 -723 -1391 -33 -91
-59 -166 -60 -167 0 -1 -154 25 -341 57 -320 55 -663 108 -939 146 -188 25
-595 71 -599 67 -1 -2 29 -52 68 -112 39 -60 76 -116 81 -125 8 -13 67 -24
285 -51 477 -61 999 -143 1344 -211 107 -21 193 -33 211 -30 51 10 80 51 115
166 151 495 437 1094 675 1415 77 105 286 311 358 354 117 69 258 107 339 91
35 -7 255 -190 432 -361 250 -240 486 -508 677 -769 87 -118 346 -520 336
-520 -3 0 -33 45 -68 100 -34 55 -66 97 -69 93 -4 -4 -14 -30 -22 -58 -43
-139 -62 -196 -88 -255 -15 -36 -47 -110 -70 -165 -23 -55 -71 -157 -106 -228
-35 -70 -64 -133 -64 -139 0 -19 -258 -451 -296 -495 -13 -15 -24 -33 -24 -39
0 -13 -89 -143 -137 -199 -50 -59 -53 -63 -53 -75 0 -5 -3 -10 -8 -10 -4 0
-27 -26 -52 -57 -78 -98 -76 -87 -21 -123 27 -17 55 -39 63 -48 7 -9 -10 0
-39 20 -124 88 -214 137 -323 175 -364 128 -1026 307 -1540 417 -400 85 -1530
269 -1548 251 -5 -4 39 -190 48 -205 3 -5 118 -25 255 -45 518 -74 1005 -162
1415 -256 242 -55 722 -181 920 -241 162 -49 461 -147 469 -154 11 -10 -169
-487 -296 -784 -119 -279 -312 -680 -326 -680 -6 0 -85 21 -176 46 -461 127
-1002 253 -1561 364 -997 199 -2024 323 -3155 382 -319 17 -1501 17 -1830 0
-672 -34 -1285 -87 -1875 -163 -129 -16 -291 -36 -360 -44 -290 -34 -581 -82
-643 -107 -39 -15 -57 -45 -57 -96 0 -79 59 -113 158 -93 90 19 326 60 329 57
4 -4 -95 -447 -101 -453 -3 -3 -18 -1 -33 5 -140 56 -669 274 -672 277 -7 8
41 322 80 520 48 245 121 527 189 740 57 176 167 473 182 492 19 24 395 99
788 158 95 14 175 27 176 28 1 1 17 58 34 127 120 477 289 807 509 994 47 39
85 89 167 216 105 164 153 229 121 165 -14 -28 -97 -250 -97 -259 0 -2 28 5
63 16 34 10 96 22 137 26 l74 7 43 110 c125 321 351 701 614 1030 102 128 187
204 439 395 853 643 1917 1042 3010 1129 183 15 849 6 1020 -13z m4604 -3222
c3 -8 2 -12 -4 -9 -6 3 -10 10 -10 16 0 14 7 11 14 -7z m65 -139 c0 -5 -13 15
-29 45 -16 30 -29 60 -29 65 0 6 13 -15 29 -45 16 -30 29 -59 29 -65z m50
-110 c0 -5 -6 1 -14 15 -8 14 -14 30 -14 35 0 6 6 -1 14 -15 8 -14 14 -29 14
-35z m230 -645 c0 -9 -4 -8 -9 5 -5 11 -9 27 -9 35 0 9 4 8 9 -5 5 -11 9 -27
9 -35z m20 -70 c0 -9 -4 -8 -9 5 -5 11 -9 27 -9 35 0 9 4 8 9 -5 5 -11 9 -27
9 -35z m20 -70 c0 -9 -4 -8 -9 5 -5 11 -9 27 -9 35 0 9 4 8 9 -5 5 -11 9 -27
9 -35z m8 -42 c-3 -8 -6 -5 -6 6 -1 11 2 17 5 13 3 -3 4 -12 1 -19z m10 -40
c-3 -8 -6 -5 -6 6 -1 11 2 17 5 13 3 -3 4 -12 1 -19z m20 -80 c-3 -8 -6 -5 -6
6 -1 11 2 17 5 13 3 -3 4 -12 1 -19z m10 -40 c-3 -8 -6 -5 -6 6 -1 11 2 17 5
13 3 -3 4 -12 1 -19z m10 -40 c-3 -8 -6 -5 -6 6 -1 11 2 17 5 13 3 -3 4 -12 1
-19z m-1517 -164 c0 -3 -27 16 -60 41 -33 25 -60 48 -60 51 0 3 27 -16 60 -41
33 -25 60 -48 60 -51z m1537 74 c-3 -8 -6 -5 -6 6 -1 11 2 17 5 13 3 -3 4 -12
1 -19z m-1502 -98 c10 -11 16 -20 13 -20 -3 0 -13 9 -23 20 -10 11 -16 20 -13
20 3 0 13 -9 23 -20z m46 -37 c13 -16 12 -17 -3 -4 -17 13 -22 21 -14 21 2 0
10 -8 17 -17z m-220 -110 c13 -16 12 -17 -3 -4 -10 7 -18 15 -18 17 0 8 8 3
21 -13z m40 -30 c13 -16 12 -17 -3 -4 -10 7 -18 15 -18 17 0 8 8 3 21 -13z
m44 -33 c10 -11 16 -20 13 -20 -3 0 -13 9 -23 20 -10 11 -16 20 -13 20 3 0 13
-9 23 -20z m50 -40 c10 -11 16 -20 13 -20 -3 0 -13 9 -23 20 -10 11 -16 20
-13 20 3 0 13 -9 23 -20z m361 -12 l29 -33 -32 29 c-31 28 -38 36 -30 36 2 0
16 -15 33 -32z m-815 -15 c-12 -20 -14 -14 -5 12 4 9 9 14 11 11 3 -2 0 -13
-6 -23z m510 -20 c13 -16 12 -17 -3 -4 -10 7 -18 15 -18 17 0 8 8 3 21 -13z
m389 -38 c19 -19 32 -35 29 -35 -3 0 -20 16 -39 35 -19 19 -32 35 -29 35 3 0
20 -16 39 -35z m-949 -72 c-12 -20 -14 -14 -5 12 4 9 9 14 11 11 3 -2 0 -13
-6 -23z m739 -38 c13 -14 21 -25 18 -25 -2 0 -15 11 -28 25 -13 14 -21 25 -18
25 2 0 15 -11 28 -25z m-759 -12 c-12 -20 -14 -14 -5 12 4 9 9 14 11 11 3 -2
0 -13 -6 -23z m-20 -50 c-12 -20 -14 -14 -5 12 4 9 9 14 11 11 3 -2 0 -13 -6
-23z m919 -70 c0 -8 -9 0 -50 45 l-45 47 48 -45 c26 -24 47 -45 47 -47z m365
-33 c10 -11 16 -20 13 -20 -3 0 -13 9 -23 20 -10 11 -16 20 -13 20 3 0 13 -9
23 -20z m902 -72 c-3 -8 -6 -5 -6 6 -1 11 2 17 5 13 3 -3 4 -12 1 -19z m-1112
-38 c27 -27 47 -50 44 -50 -3 0 -27 23 -54 50 -27 28 -47 50 -44 50 3 0 27
-22 54 -50z m-6515 -70 c1059 -56 1981 -163 2900 -336 412 -78 1290 -270 1306
-286 2 -3 -5 -30 -17 -59 -27 -69 -159 -418 -256 -674 -72 -191 -311 -879
-386 -1110 -56 -171 -240 -779 -301 -990 -301 -1051 -578 -2314 -736 -3357
-147 -974 -217 -1673 -246 -2433 -13 -365 52 -1001 231 -2268 137 -964 311
-1979 441 -2565 59 -269 67 -338 61 -506 -5 -157 -20 -223 -72 -333 -64 -136
-184 -220 -348 -242 -329 -44 -1083 -42 -1667 4 -787 63 -1493 176 -2227 355
-401 99 -937 278 -1124 376 -100 53 -184 145 -248 273 -125 248 -408 888 -543
1225 -657 1647 -1132 3340 -1372 4886 -67 433 -94 656 -106 870 -86 1627 34
3535 341 5375 98 590 213 1182 292 1500 l22 90 125 17 c181 25 799 94 1055
118 390 36 878 65 1400 84 181 7 1286 -4 1475 -14z m6610 -25 c19 -19 32 -35
29 -35 -3 0 -20 16 -39 35 -19 19 -32 35 -29 35 3 0 20 -16 39 -35z m1027
-167 c-2 -29 -3 -8 -3 47 0 55 1 79 3 53 2 -26 2 -71 0 -100z m-577 15 c0 -8
-9 0 -50 45 l-45 47 48 -45 c26 -24 47 -45 47 -47z m36 -45 l29 -33 -32 29
c-31 28 -38 36 -30 36 2 0 16 -15 33 -32z m-236 -65 c0 -8 -9 0 -50 45 l-45
47 48 -45 c26 -24 47 -45 47 -47z m-1709 -89 c-27 -55 -50 -96 -50 -92 -1 11
93 198 97 194 2 -2 -19 -48 -47 -102z m2486 -56 c-2 -29 -3 -8 -3 47 0 55 1
79 3 53 2 -26 2 -71 0 -100z m-737 97 c13 -14 21 -25 18 -25 -2 0 -15 11 -28
25 -13 14 -21 25 -18 25 2 0 15 -11 28 -25z m410 -140 c13 -14 21 -25 18 -25
-2 0 -15 11 -28 25 -13 14 -21 25 -18 25 2 0 15 -11 28 -25z m45 -55 c10 -11
16 -20 13 -20 -3 0 -13 9 -23 20 -10 11 -16 20 -13 20 3 0 13 -9 23 -20z
m-280 -10 c10 -11 16 -20 13 -20 -3 0 -13 9 -23 20 -10 11 -16 20 -13 20 3 0
13 -9 23 -20z m316 -37 c13 -16 12 -17 -3 -4 -17 13 -22 21 -14 21 2 0 10 -8
17 -17z m-266 -23 c10 -11 16 -20 13 -20 -3 0 -13 9 -23 20 -10 11 -16 20 -13
20 3 0 13 -9 23 -20z m320 -40 c10 -11 16 -20 13 -20 -3 0 -13 9 -23 20 -10
11 -16 20 -13 20 3 0 13 -9 23 -20z m-280 -10 c10 -11 16 -20 13 -20 -3 0 -13
9 -23 20 -10 11 -16 20 -13 20 3 0 13 -9 23 -20z m462 -2 c-3 -8 -6 -5 -6 6
-1 11 2 17 5 13 3 -3 4 -12 1 -19z m-3220 -24 c-3 -3 -12 -4 -19 -1 -8 3 -5 6
6 6 11 1 17 -2 13 -5z m40 -10 c-3 -3 -12 -4 -19 -1 -8 3 -5 6 6 6 11 1 17 -2
13 -5z m694 -71 c8 -10 -10 2 -38 26 -29 24 -53 46 -53 48 0 7 75 -54 91 -74z
m-636 57 c13 -5 14 -9 5 -9 -8 0 -24 4 -35 9 -13 5 -14 9 -5 9 8 0 24 -4 35
-9z m2706 -7 c13 -16 12 -17 -3 -4 -10 7 -18 15 -18 17 0 8 8 3 21 -13z
m-2654 -9 c-3 -3 -12 -4 -19 -1 -8 3 -5 6 6 6 11 1 17 -2 13 -5z m58 -14 c13
-5 14 -9 5 -9 -8 0 -24 4 -35 9 -13 5 -14 9 -5 9 8 0 24 -4 35 -9z m52 -16
c-3 -3 -12 -4 -19 -1 -8 3 -5 6 6 6 11 1 17 -2 13 -5z m70 -20 c-3 -3 -12 -4
-19 -1 -8 3 -5 6 6 6 11 1 17 -2 13 -5z m453 -29 c13 -14 21 -25 18 -25 -2 0
-15 11 -28 25 -13 14 -21 25 -18 25 2 0 15 -11 28 -25z m-909 -52 c-12 -20
-14 -14 -5 12 4 9 9 14 11 11 3 -2 0 -13 -6 -23z m970 0 c13 -16 12 -17 -3 -4
-17 13 -22 21 -14 21 2 0 10 -8 17 -17z m-990 -50 c-12 -20 -14 -14 -5 12 4 9
9 14 11 11 3 -2 0 -13 -6 -23z m734 -23 c10 -11 16 -20 13 -20 -3 0 -13 9 -23
20 -10 11 -16 20 -13 20 3 0 13 -9 23 -20z m2376 3 c13 -16 12 -17 -3 -4 -17
13 -22 21 -14 21 2 0 10 -8 17 -17z m-3130 -30 c-12 -20 -14 -14 -5 12 4 9 9
14 11 11 3 -2 0 -13 -6 -23z m3220 -93 c23 -35 25 -38 5 -15 -14 17 -40 50
-57 75 -23 35 -25 38 -5 15 14 -16 40 -50 57 -75z m-2331 -7 c0 -8 -9 0 -50
45 l-45 47 48 -45 c26 -24 47 -45 47 -47z m265 67 c10 -11 16 -20 13 -20 -3 0
-13 9 -23 20 -10 11 -16 20 -13 20 3 0 13 -9 23 -20z m-1174 -17 c-12 -20 -14
-14 -5 12 4 9 9 14 11 11 3 -2 0 -13 -6 -23z m-20 -50 c-12 -20 -14 -14 -5 12
4 9 9 14 11 11 3 -2 0 -13 -6 -23z m1314 -43 c33 -33 57 -60 54 -60 -2 0 -31
27 -64 60 -33 33 -57 60 -54 60 2 0 31 -27 64 -60z m-329 -2 l29 -33 -32 29
c-31 28 -38 36 -30 36 2 0 16 -15 33 -32z m-1005 -5 c-12 -20 -14 -14 -5 12 4
9 9 14 11 11 3 -2 0 -13 -6 -23z m-20 -50 c-12 -20 -14 -14 -5 12 4 9 9 14 11
11 3 -2 0 -13 -6 -23z m1349 -258 c63 -63 112 -115 110 -115 -3 0 -57 52 -120
115 -63 63 -112 115 -110 115 3 0 57 -52 120 -115z m280 30 c35 -36 62 -65 59
-65 -2 0 -34 29 -69 65 -35 36 -62 65 -59 65 2 0 34 -29 69 -65z m1973 -105
c31 -52 11 -32 -27 28 -20 31 -27 45 -14 30 13 -15 32 -41 41 -58z m-1693
-205 c19 -19 32 -35 29 -35 -3 0 -20 16 -39 35 -19 19 -32 35 -29 35 3 0 20
-16 39 -35z m-290 -10 c13 -14 21 -25 18 -25 -2 0 -15 11 -28 25 -13 14 -21
25 -18 25 2 0 15 -11 28 -25z m356 -67 l29 -33 -32 29 c-31 28 -38 36 -30 36
2 0 16 -15 33 -32z m-260 -40 l29 -33 -32 29 c-31 28 -38 36 -30 36 2 0 16
-15 33 -32z m-1957 -17 c-6 -18 -13 -30 -15 -28 -2 2 1 18 7 36 6 18 13 30 15
28 2 -2 -1 -18 -7 -36z m2272 -8 c13 -16 12 -17 -3 -4 -10 7 -18 15 -18 17 0
8 8 3 21 -13z m-240 -60 c13 -16 12 -17 -3 -4 -10 7 -18 15 -18 17 0 8 8 3 21
-13z m2059 -3 c6 -11 8 -20 6 -20 -3 0 -10 9 -16 20 -6 11 -8 20 -6 20 3 0 10
-9 16 -20z m-4131 -39 c-6 -18 -13 -30 -15 -28 -2 2 1 18 7 36 6 18 13 30 15
28 2 -2 -1 -18 -7 -36z m4171 -31 c6 -11 8 -20 6 -20 -3 0 -10 9 -16 20 -6 11
-8 20 -6 20 3 0 10 -9 16 -20z m35 -60 c9 -16 13 -30 11 -30 -3 0 -12 14 -21
30 -9 17 -13 30 -11 30 3 0 12 -13 21 -30z m-1720 -20 c10 -11 16 -20 13 -20
-3 0 -13 9 -23 20 -10 11 -16 20 -13 20 3 0 13 -9 23 -20z m40 -50 c10 -11 16
-20 13 -20 -3 0 -13 9 -23 20 -10 11 -16 20 -13 20 3 0 13 -9 23 -20z m-260
-30 c10 -11 16 -20 13 -20 -3 0 -13 9 -23 20 -10 11 -16 20 -13 20 3 0 13 -9
23 -20z m300 -20 c10 -11 16 -20 13 -20 -3 0 -13 9 -23 20 -10 11 -16 20 -13
20 3 0 13 -9 23 -20z m-260 -30 c10 -11 16 -20 13 -20 -3 0 -13 9 -23 20 -10
11 -16 20 -13 20 3 0 13 -9 23 -20z m306 -27 c13 -16 12 -17 -3 -4 -17 13 -22
21 -14 21 2 0 10 -8 17 -17z m1620 -10 c-12 -20 -14 -14 -5 12 4 9 9 14 11 11
3 -2 0 -13 -6 -23z m-1886 -13 c10 -11 16 -20 13 -20 -3 0 -13 9 -23 20 -10
11 -16 20 -13 20 3 0 13 -9 23 -20z m1866 -37 c-12 -20 -14 -14 -5 12 4 9 9
14 11 11 3 -2 0 -13 -6 -23z m-1830 -10 c13 -16 12 -17 -3 -4 -17 13 -22 21
-14 21 2 0 10 -8 17 -17z m1810 -40 c-12 -20 -14 -14 -5 12 4 9 9 14 11 11 3
-2 0 -13 -6 -23z m-20 -50 c-12 -20 -14 -14 -5 12 4 9 9 14 11 11 3 -2 0 -13
-6 -23z m-50 -130 c-12 -20 -14 -14 -5 12 4 9 9 14 11 11 3 -2 0 -13 -6 -23z
m-1290 -10 c13 -16 12 -17 -3 -4 -10 7 -18 15 -18 17 0 8 8 3 21 -13z m-270
-10 c13 -16 12 -17 -3 -4 -10 7 -18 15 -18 17 0 8 8 3 21 -13z m59 -79 c18
-26 29 -45 24 -42 -5 4 -25 28 -44 54 -18 26 -29 45 -24 42 5 -4 25 -28 44
-54z m261 19 c13 -16 12 -17 -3 -4 -17 13 -22 21 -14 21 2 0 10 -8 17 -17z
m-3142 -152 c-7 -23 -14 -39 -16 -37 -3 2 1 23 8 45 7 23 14 39 16 37 3 -2 -1
-23 -8 -45z m3132 -246 l10 -20 -16 20 c-9 11 -21 29 -26 40 l-10 20 16 -20
c9 -11 21 -29 26 -40z m-3207 11 c-3 -15 -8 -25 -11 -23 -2 3 -1 17 3 31 3 15
8 25 11 23 2 -3 1 -17 -3 -31z m3456 14 c6 -11 8 -20 6 -20 -3 0 -10 9 -16 20
-6 11 -8 20 -6 20 3 0 10 -9 16 -20z m51 -85 l10 -20 -16 20 c-9 11 -21 29
-26 40 l-10 20 16 -20 c9 -11 21 -29 26 -40z m-251 -15 c6 -11 8 -20 6 -20 -3
0 -10 9 -16 20 -6 11 -8 20 -6 20 3 0 10 -9 16 -20z m981 -27 c-12 -20 -14
-14 -5 12 4 9 9 14 11 11 3 -2 0 -13 -6 -23z m-701 -3 c6 -11 8 -20 6 -20 -3
0 -10 9 -16 20 -6 11 -8 20 -6 20 3 0 10 -9 16 -20z m-250 -20 c6 -11 8 -20 6
-20 -3 0 -10 9 -16 20 -6 11 -8 20 -6 20 3 0 10 -9 16 -20z m931 -27 c-12 -20
-14 -14 -5 12 4 9 9 14 11 11 3 -2 0 -13 -6 -23z m-921 -40 c-11 -17 -11 -17
-6 0 3 10 6 24 7 30 0 9 2 9 5 0 3 -7 0 -20 -6 -30z m901 -10 c-12 -20 -14
-14 -5 12 4 9 9 14 11 11 3 -2 0 -13 -6 -23z m-12591 8 c64 -5 75 -9 75 -24 0
-15 -22 -25 -115 -52 -356 -103 -711 -308 -1025 -592 -105 -95 -269 -271 -323
-348 -47 -65 -25 -145 43 -164 56 -15 86 2 161 92 263 314 588 565 922 712
110 48 303 118 309 111 2 -2 -5 -93 -16 -202 -11 -110 -25 -268 -32 -351 -7
-84 -15 -153 -18 -153 -3 1 -26 28 -51 61 -69 93 -113 129 -158 129 -62 -1
-109 -55 -98 -114 3 -18 29 -59 57 -92 58 -69 153 -205 197 -284 l32 -56 -15
-279 c-9 -154 -18 -322 -21 -373 l-6 -94 -54 107 c-152 298 -464 715 -549 731
-60 11 -114 -35 -115 -97 0 -38 9 -53 95 -154 214 -250 413 -581 491 -817 35
-105 38 -121 38 -238 1 -115 -1 -129 -26 -182 -51 -109 -162 -186 -361 -252
-152 -50 -229 -61 -417 -60 -147 0 -188 4 -255 22 -126 34 -234 92 -294 158
-28 30 -51 60 -51 65 0 5 26 9 58 9 197 0 758 87 859 133 27 12 53 55 53 87 0
36 -28 77 -61 90 -28 12 -52 9 -213 -23 -298 -60 -470 -79 -721 -80 -233 -1
-324 8 -493 48 -247 59 -404 155 -568 348 -27 32 -37 37 -73 37 -34 0 -49 -6
-72 -29 -57 -57 -30 -132 90 -252 42 -41 105 -95 140 -119 54 -36 187 -104
243 -123 11 -4 19 -21 23 -49 22 -164 146 -1191 143 -1193 -10 -7 -2780 -617
-2784 -612 -7 7 27 100 616 1687 228 614 454 1224 515 1392 l57 156 152 100
c465 305 1023 596 1515 789 206 82 562 200 741 247 259 68 601 127 835 145
130 10 419 11 525 2z m11661 -68 c-12 -20 -14 -14 -5 12 4 9 9 14 11 11 3 -2
0 -13 -6 -23z m-35 -80 c-8 -15 -15 -25 -16 -21 0 12 23 58 27 54 3 -2 -2 -17
-11 -33z m-25 -60 c-12 -20 -14 -14 -5 12 4 9 9 14 11 11 3 -2 0 -13 -6 -23z
m609 -153 c6 -11 8 -20 6 -20 -3 0 -10 9 -16 20 -6 11 -8 20 -6 20 3 0 10 -9
16 -20z m30 -50 c6 -11 8 -20 6 -20 -3 0 -10 9 -16 20 -6 11 -8 20 -6 20 3 0
10 -9 16 -20z m-4063 -132 c-3 -8 -6 -5 -6 6 -1 11 2 17 5 13 3 -3 4 -12 1
-19z m-13 -52 c-3 -15 -8 -25 -11 -23 -2 3 -1 17 3 31 3 15 8 25 11 23 2 -3 1
-17 -3 -31z m-17 -58 c-3 -8 -6 -5 -6 6 -1 11 2 17 5 13 3 -3 4 -12 1 -19z
m-20 -70 c-3 -8 -6 -5 -6 6 -1 11 2 17 5 13 3 -3 4 -12 1 -19z m3254 -15 c-12
-20 -14 -14 -5 12 4 9 9 14 11 11 3 -2 0 -13 -6 -23z m-3267 -37 c-3 -15 -8
-25 -11 -23 -2 3 -1 17 3 31 3 15 8 25 11 23 2 -3 1 -17 -3 -31z m3237 -33
c-12 -20 -14 -14 -5 12 4 9 9 14 11 11 3 -2 0 -13 -6 -23z m-3254 -25 c-3 -8
-6 -5 -6 6 -1 11 2 17 5 13 3 -3 4 -12 1 -19z m-13 -52 c-3 -15 -8 -25 -11
-23 -2 3 -1 17 3 31 3 15 8 25 11 23 2 -3 1 -17 -3 -31z m3237 7 c-12 -20 -14
-14 -5 12 4 9 9 14 11 11 3 -2 0 -13 -6 -23z m-3254 -65 c-3 -8 -6 -5 -6 6 -1
11 2 17 5 13 3 -3 4 -12 1 -19z m3224 -5 c-12 -20 -14 -14 -5 12 4 9 9 14 11
11 3 -2 0 -13 -6 -23z m-3234 -35 c-3 -8 -6 -5 -6 6 -1 11 2 17 5 13 3 -3 4
-12 1 -19z m3204 -35 c-12 -20 -14 -14 -5 12 4 9 9 14 11 11 3 -2 0 -13 -6
-23z m-210 -510 c-12 -20 -14 -14 -5 12 4 9 9 14 11 11 3 -2 0 -13 -6 -23z
m-25 -60 c-8 -15 -15 -25 -16 -21 0 12 23 58 27 54 3 -2 -2 -17 -11 -33z m-25
-60 c-12 -20 -14 -14 -5 12 4 9 9 14 11 11 3 -2 0 -13 -6 -23z m-30 -70 c-12
-20 -14 -14 -5 12 4 9 9 14 11 11 3 -2 0 -13 -6 -23z m-3104 -55 c-3 -8 -6 -5
-6 6 -1 11 2 17 5 13 3 -3 4 -12 1 -19z m3074 -15 c-12 -20 -14 -14 -5 12 4 9
9 14 11 11 3 -2 0 -13 -6 -23z m-3084 -25 c-3 -8 -6 -5 -6 6 -1 11 2 17 5 13
3 -3 4 -12 1 -19z m-10 -40 c-3 -8 -6 -5 -6 6 -1 11 2 17 5 13 3 -3 4 -12 1
-19z m-10 -50 c-3 -8 -6 -5 -6 6 -1 11 2 17 5 13 3 -3 4 -12 1 -19z m-13 -62
c-3 -21 -8 -35 -11 -32 -2 2 -1 20 3 40 3 21 8 35 11 32 2 -2 1 -20 -3 -40z
m-17 -68 c-3 -8 -6 -5 -6 6 -1 11 2 17 5 13 3 -3 4 -12 1 -19z m-10 -50 c-3
-7 -5 -2 -5 12 0 14 2 19 5 13 2 -7 2 -19 0 -25z m-10 -40 c-3 -8 -6 -5 -6 6
-1 11 2 17 5 13 3 -3 4 -12 1 -19z m-10 -50 c-3 -7 -5 -2 -5 12 0 14 2 19 5
13 2 -7 2 -19 0 -25z m-13 -62 c-3 -21 -8 -35 -11 -32 -2 2 -1 20 3 40 3 21 8
35 11 32 2 -2 1 -20 -3 -40z m2977 -43 c-12 -20 -14 -14 -5 12 4 9 9 14 11 11
3 -2 0 -13 -6 -23z m-2994 -25 c-3 -8 -6 -5 -6 6 -1 11 2 17 5 13 3 -3 4 -12
1 -19z m2959 -55 c-8 -15 -15 -25 -16 -21 0 12 23 58 27 54 3 -2 -2 -17 -11
-33z m-2969 5 c-3 -8 -6 -5 -6 6 -1 11 2 17 5 13 3 -3 4 -12 1 -19z m-10 -50
c-3 -7 -5 -2 -5 12 0 14 2 19 5 13 2 -7 2 -19 0 -25z m2954 -15 c-12 -20 -14
-14 -5 12 4 9 9 14 11 11 3 -2 0 -13 -6 -23z m-2964 -25 c-3 -8 -6 -5 -6 6 -1
11 2 17 5 13 3 -3 4 -12 1 -19z m2934 -45 c-12 -20 -14 -14 -5 12 4 9 9 14 11
11 3 -2 0 -13 -6 -23z m-2944 -5 c-3 -8 -6 -5 -6 6 -1 11 2 17 5 13 3 -3 4
-12 1 -19z m-9664 -264 c67 -9 127 -18 134 -19 6 -2 30 -39 52 -82 75 -145
193 -248 353 -309 57 -21 87 -41 138 -90 115 -110 234 -164 413 -185 171 -20
537 16 714 70 l61 19 6 -142 c30 -749 31 -752 81 -1101 18 -126 32 -231 31
-232 -2 -2 -1046 -201 -2016 -384 -261 -49 -485 -91 -497 -94 -17 -4 -23 -1
-23 12 -1 36 163 1128 170 1136 4 5 78 24 165 43 193 42 214 55 215 129 0 22
-29 281 -65 575 -36 294 -68 558 -71 585 -3 28 -7 61 -10 74 -4 19 -2 22 11
17 9 -3 71 -13 138 -22z m1865 -281 c-3 -96 -4 -98 -31 -111 -96 -46 -393 -93
-577 -91 -58 1 -98 3 -90 4 8 2 49 9 90 15 191 31 438 134 536 225 32 30 63
54 67 55 4 0 6 -44 5 -97z m10523 10 c-12 -20 -14 -14 -5 12 4 9 9 14 11 11 3
-2 0 -13 -6 -23z m-31 -72 c-6 -12 -15 -21 -21 -21 -6 0 -3 7 5 16 9 8 16 20
16 26 0 6 3 9 6 6 3 -4 1 -16 -6 -27z m-1413 -47 c-3 -3 -12 -4 -19 -1 -8 3
-5 6 6 6 11 1 17 -2 13 -5z m-50 -10 c-3 -3 -12 -4 -19 -1 -8 3 -5 6 6 6 11 1
17 -2 13 -5z m-44 -11 c-7 -2 -19 -2 -25 0 -7 3 -2 5 12 5 14 0 19 -2 13 -5z
m-46 -9 c-3 -3 -12 -4 -19 -1 -8 3 -5 6 6 6 11 1 17 -2 13 -5z m-40 -10 c-3
-3 -12 -4 -19 -1 -8 3 -5 6 6 6 11 1 17 -2 13 -5z m-70 -20 c-3 -3 -12 -4 -19
-1 -8 3 -5 6 6 6 11 1 17 -2 13 -5z m-1170 -66 c-3 -7 -5 -2 -5 12 0 14 2 19
5 13 2 -7 2 -19 0 -25z m1033 23 c-8 -5 -26 -11 -40 -15 -21 -5 -20 -3 5 9 32
15 60 20 35 6z m-80 -31 c-8 -5 -19 -10 -25 -10 -5 0 -3 5 5 10 8 5 20 10 25
10 6 0 3 -5 -5 -10z m-963 -52 c-3 -7 -5 -2 -5 12 0 14 2 19 5 13 2 -7 2 -19
0 -25z m2438 22 c465 -24 808 -72 1310 -187 866 -197 1737 -516 2655 -975
1747 -871 3341 -2092 4811 -3683 451 -488 1007 -1176 1439 -1780 295 -412 663
-971 741 -1126 111 -222 223 -574 299 -942 154 -751 181 -1766 69 -2677 -113
-934 -378 -1889 -723 -2615 -138 -290 -347 -671 -425 -774 -18 -23 -18 -23
-25 64 -25 325 -169 1039 -312 1545 -214 757 -432 1400 -735 2169 -154 390
-394 959 -526 1245 -35 76 -62 140 -61 142 2 1 41 -7 88 -18 170 -41 405 -9
532 71 80 51 79 46 115 420 73 763 96 1073 97 1291 l1 215 -125 145 c-69 80
-219 260 -334 400 -116 140 -251 305 -301 365 -50 61 -95 116 -99 123 -17 29
242 -118 453 -256 154 -101 319 -226 476 -362 72 -61 140 -119 152 -127 13 -8
56 -17 101 -20 207 -14 435 89 586 265 62 72 78 109 66 151 -20 72 -546 659
-901 1006 -424 415 -764 661 -995 719 -208 53 -918 64 -1678 26 -120 -6 -220
-10 -222 -8 -2 2 -212 420 -468 929 -494 983 -859 1725 -947 1928 -62 143 -84
165 -156 158 -31 -3 -59 -17 -100 -48 -65 -51 -251 -256 -466 -516 -118 -142
-154 -180 -163 -170 -6 6 -222 266 -479 577 -492 595 -560 672 -665 750 -170
126 -225 148 -718 280 -829 222 -797 212 -978 293 -394 175 -556 233 -984 351
-242 66 -604 130 -873 152 -151 12 -221 23 -326 51 -90 23 -145 33 -167 28
-34 -6 -84 -55 -84 -81 0 -17 -2 -17 -35 -2 -14 6 -25 16 -25 22 0 6 -12 22
-25 35 -14 13 -25 27 -25 33 0 14 -112 168 -122 168 -4 0 -8 6 -8 13 0 7 -12
28 -27 46 l-28 32 -80 -34 c-45 -19 -100 -44 -123 -56 -23 -12 -42 -19 -42
-16 0 11 162 86 261 120 196 68 406 109 699 135 230 20 377 22 625 10z m-2448
-82 c-3 -7 -5 -2 -5 12 0 14 2 19 5 13 2 -7 2 -19 0 -25z m-10 -60 c-3 -7 -5
-2 -5 12 0 14 2 19 5 13 2 -7 2 -19 0 -25z m-10 -55 c-3 -10 -5 -4 -5 12 0 17
2 24 5 18 2 -7 2 -21 0 -30z m-10 -60 c-3 -10 -5 -4 -5 12 0 17 2 24 5 18 2
-7 2 -21 0 -30z m637 -19 c3 -8 2 -12 -4 -9 -6 3 -10 10 -10 16 0 14 7 11 14
-7z m-647 -51 c-3 -10 -5 -4 -5 12 0 17 2 24 5 18 2 -7 2 -21 0 -30z m-10 -60
c-3 -10 -5 -4 -5 12 0 17 2 24 5 18 2 -7 2 -21 0 -30z m-10 -60 c-3 -10 -5 -4
-5 12 0 17 2 24 5 18 2 -7 2 -21 0 -30z m-10 -70 c-3 -10 -5 -2 -5 17 0 19 2
27 5 18 2 -10 2 -26 0 -35z m-10 -70 c-3 -10 -5 -2 -5 17 0 19 2 27 5 18 2
-10 2 -26 0 -35z m-10 -60 c-3 -10 -5 -4 -5 12 0 17 2 24 5 18 2 -7 2 -21 0
-30z m-10 -70 c-3 -10 -5 -2 -5 17 0 19 2 27 5 18 2 -10 2 -26 0 -35z m-10
-70 c-3 -10 -5 -4 -5 12 0 17 2 24 5 18 2 -7 2 -21 0 -30z m2040 31 c-3 -3
-12 -4 -19 -1 -8 3 -5 6 6 6 11 1 17 -2 13 -5z m58 -14 c13 -5 14 -9 5 -9 -8
0 -24 4 -35 9 -13 5 -14 9 -5 9 8 0 24 -4 35 -9z m314 -84 c152 -41 332 -89
401 -106 69 -17 343 -89 610 -160 267 -71 717 -190 1000 -265 283 -75 585
-155 670 -177 85 -23 185 -54 223 -69 91 -38 219 -123 292 -195 44 -43 893
-1059 1038 -1240 17 -23 16 -25 -216 -316 -207 -261 -571 -726 -806 -1031 -51
-67 -88 -106 -97 -103 -22 8 -1007 756 -1031 782 -20 22 -23 36 -23 119 0 65
6 112 20 159 19 59 19 69 6 99 -18 44 -51 67 -98 67 -80 0 -127 -92 -136 -267
-3 -66 -9 -103 -16 -103 -21 -1 -705 83 -1436 176 -404 51 -699 91 -655 88 44
-3 90 -8 103 -11 l22 -5 0 1290 0 1291 -57 16 c-75 21 -110 33 -99 34 5 1 134
-32 285 -73z m-2422 -3 c-3 -10 -5 -4 -5 12 0 17 2 24 5 18 2 -7 2 -21 0 -30z
m-10027 -299 c-21 -143 -57 -390 -80 -549 l-42 -290 -117 -120 c-65 -66 -146
-158 -180 -203 -52 -72 -61 -90 -61 -127 0 -32 6 -48 26 -68 60 -61 124 -41
196 61 70 98 186 222 209 222 22 0 152 24 1034 190 347 66 673 126 725 135 52
9 224 40 382 70 277 53 391 70 238 36 -54 -12 -75 -21 -73 -31 0 -8 31 -105
67 -214 36 -110 66 -207 66 -217 0 -9 13 -55 29 -101 16 -46 79 -238 141 -428
61 -190 120 -369 131 -398 10 -29 19 -60 19 -69 0 -16 215 -684 287 -890 l35
-102 72 -4 71 -3 -85 -2 c-113 -3 -1776 43 -2505 68 -1577 55 -2767 113 -2908
141 -94 18 -165 87 -186 181 -10 43 -3 75 115 514 69 258 154 582 190 719 36
138 114 432 174 655 60 223 123 461 141 530 17 69 35 128 38 132 4 4 171 43
371 87 297 65 820 181 1435 320 44 9 81 17 82 16 1 0 -15 -118 -37 -261z
m10017 229 c-3 -10 -5 -4 -5 12 0 17 2 24 5 18 2 -7 2 -21 0 -30z m-10 -80
c-3 -10 -5 -2 -5 17 0 19 2 27 5 18 2 -10 2 -26 0 -35z m-10 -70 c-3 -10 -5
-4 -5 12 0 17 2 24 5 18 2 -7 2 -21 0 -30z m-10 -75 c-3 -7 -5 -2 -5 12 0 14
2 19 5 13 2 -7 2 -19 0 -25z m-7344 -585 c-7 -2 -19 -2 -25 0 -7 3 -2 5 12 5
14 0 19 -2 13 -5z m-50 -10 c-7 -2 -19 -2 -25 0 -7 3 -2 5 12 5 14 0 19 -2 13
-5z m-50 -10 c-7 -2 -19 -2 -25 0 -7 3 -2 5 12 5 14 0 19 -2 13 -5z m-50 -10
c-7 -2 -19 -2 -25 0 -7 3 -2 5 12 5 14 0 19 -2 13 -5z m-50 -10 c-7 -2 -19 -2
-25 0 -7 3 -2 5 12 5 14 0 19 -2 13 -5z m294 -445 c-3 -8 -6 -5 -6 6 -1 11 2
17 5 13 3 -3 4 -12 1 -19z m10 -50 c-3 -8 -6 -5 -6 6 -1 11 2 17 5 13 3 -3 4
-12 1 -19z m10 -60 c-3 -7 -5 -2 -5 12 0 14 2 19 5 13 2 -7 2 -19 0 -25z m10
-50 c-3 -7 -5 -2 -5 12 0 14 2 19 5 13 2 -7 2 -19 0 -25z m7110 -5 c-3 -10 -5
-4 -5 12 0 17 2 24 5 18 2 -7 2 -21 0 -30z m-7100 -35 c-3 -8 -6 -5 -6 6 -1
11 2 17 5 13 3 -3 4 -12 1 -19z m14878 -283 c65 -137 380 -775 701 -1416 321
-642 584 -1175 584 -1185 0 -32 38 -83 67 -90 15 -4 129 -2 253 4 829 43 1482
40 1695 -9 302 -69 875 -567 1574 -1368 l161 -185 -32 -34 c-83 -87 -227 -152
-337 -152 l-57 0 -124 106 c-375 323 -841 612 -1262 784 l-103 41 -104 130
c-135 167 -143 174 -193 174 -33 0 -45 -6 -69 -33 -41 -46 -39 -87 8 -149 95
-124 1094 -1342 1273 -1551 l63 -73 -7 -137 c-11 -223 -117 -1436 -131 -1508
-5 -25 -91 -54 -184 -62 l-64 -5 7 104 c16 235 48 677 77 1051 26 335 28 400
17 421 -11 21 -572 689 -980 1168 -130 152 -154 167 -216 135 -39 -20 -52 -44
-52 -94 0 -34 10 -51 92 -148 51 -60 287 -340 526 -622 l433 -513 -35 -467
c-20 -257 -43 -577 -52 -712 -9 -135 -19 -248 -23 -251 -19 -19 -118 -41 -203
-46 -130 -8 -143 -2 -86 41 79 61 128 155 128 247 0 73 -100 407 -232 774
l-51 140 -265 365 c-147 201 -345 473 -440 605 -96 132 -185 251 -198 265 -19
19 -35 25 -69 25 -54 0 -93 -33 -101 -86 -7 -41 -14 -30 256 -399 358 -489
493 -674 565 -775 69 -95 76 -111 148 -317 72 -205 167 -505 182 -575 18 -87
-93 -164 -325 -223 l-83 -21 -29 28 c-60 56 -273 299 -744 848 -901 1050
-1043 1199 -1233 1294 -299 150 -741 189 -1276 111 -71 -10 -144 -22 -161 -25
l-32 -7 -57 172 c-51 154 -60 174 -89 191 -57 36 -137 4 -151 -62 -5 -21 50
-199 218 -711 123 -376 227 -695 231 -710 6 -25 0 -31 -76 -81 -99 -66 -163
-98 -280 -143 -236 -91 -405 -97 -482 -18 -104 107 -290 588 -401 1039 -113
455 -146 781 -99 953 15 52 17 55 77 82 170 76 534 175 956 260 278 56 434 80
512 80 91 0 145 53 131 127 -6 33 -48 70 -86 77 -39 7 -177 -7 -333 -34 l-108
-19 -365 164 c-620 278 -1083 485 -1133 508 l-48 22 272 355 c1022 1335 1899
2418 1929 2383 4 -5 60 -120 125 -258z m-14868 233 c-3 -8 -6 -5 -6 6 -1 11 2
17 5 13 3 -3 4 -12 1 -19z m10 -50 c-3 -8 -6 -5 -6 6 -1 11 2 17 5 13 3 -3 4
-12 1 -19z m7070 -60 c-2 -13 -4 -3 -4 22 0 25 2 35 4 23 2 -13 2 -33 0 -45z
m-7060 10 c-3 -7 -5 -2 -5 12 0 14 2 19 5 13 2 -7 2 -19 0 -25z m10 -50 c-3
-7 -5 -2 -5 12 0 14 2 19 5 13 2 -7 2 -19 0 -25z m10 -40 c-3 -8 -6 -5 -6 6
-1 11 2 17 5 13 3 -3 4 -12 1 -19z m10 -50 c-3 -7 -5 -2 -5 12 0 14 2 19 5 13
2 -7 2 -19 0 -25z m10 -40 c-3 -8 -6 -5 -6 6 -1 11 2 17 5 13 3 -3 4 -12 1
-19z m7010 -225 c-1 -43 -3 -8 -3 77 0 85 2 120 3 78 2 -43 2 -113 0 -155z
m-7000 175 c-3 -7 -5 -2 -5 12 0 14 2 19 5 13 2 -7 2 -19 0 -25z m10 -40 c-3
-8 -6 -5 -6 6 -1 11 2 17 5 13 3 -3 4 -12 1 -19z m21 -83 c0 -16 -2 -15 -8 5
-4 14 -8 34 -8 45 0 16 2 15 8 -5 4 -14 8 -34 8 -45z m9 -47 c-3 -8 -6 -5 -6
6 -1 11 2 17 5 13 3 -3 4 -12 1 -19z m10 -40 c-3 -8 -6 -5 -6 6 -1 11 2 17 5
13 3 -3 4 -12 1 -19z m10 -40 c-3 -8 -6 -5 -6 6 -1 11 2 17 5 13 3 -3 4 -12 1
-19z m6950 -145 c-3 -10 -5 -2 -5 17 0 19 2 27 5 18 2 -10 2 -26 0 -35z m1420
-89 c-3 -3 -12 -4 -19 -1 -8 3 -5 6 6 6 11 1 17 -2 13 -5z m-149 -33 c-13 -15
-25 -27 -27 -25 -4 4 39 54 47 54 2 0 -7 -13 -20 -29z m235 22 c-7 -2 -19 -2
-25 0 -7 3 -2 5 12 5 14 0 19 -2 13 -5z m-1496 -25 c-3 -8 -6 -5 -6 6 -1 11 2
17 5 13 3 -3 4 -12 1 -19z m1576 15 c-7 -2 -21 -2 -30 0 -10 3 -4 5 12 5 17 0
24 -2 18 -5z m85 -10 c-10 -2 -26 -2 -35 0 -10 3 -2 5 17 5 19 0 27 -2 18 -5z
m80 -10 c-10 -2 -26 -2 -35 0 -10 3 -2 5 17 5 19 0 27 -2 18 -5z m80 -10 c-10
-2 -26 -2 -35 0 -10 3 -2 5 17 5 19 0 27 -2 18 -5z m80 -10 c-10 -2 -26 -2
-35 0 -10 3 -2 5 17 5 19 0 27 -2 18 -5z m80 -10 c-10 -2 -26 -2 -35 0 -10 3
-2 5 17 5 19 0 27 -2 18 -5z m-751 -55 c-2 -13 -4 -5 -4 17 -1 22 1 32 4 23 2
-10 2 -28 0 -40z m831 45 c-10 -2 -26 -2 -35 0 -10 3 -2 5 17 5 19 0 27 -2 18
-5z m80 -10 c-10 -2 -26 -2 -35 0 -10 3 -2 5 17 5 19 0 27 -2 18 -5z m80 -10
c-10 -2 -26 -2 -35 0 -10 3 -2 5 17 5 19 0 27 -2 18 -5z m-375 -180 c-7 -2
-19 -2 -25 0 -7 3 -2 5 12 5 14 0 19 -2 13 -5z m85 -10 c-10 -2 -26 -2 -35 0
-10 3 -2 5 17 5 19 0 27 -2 18 -5z m80 -10 c-10 -2 -26 -2 -35 0 -10 3 -2 5
17 5 19 0 27 -2 18 -5z m80 -10 c-10 -2 -28 -2 -40 0 -13 2 -5 4 17 4 22 1 32
-1 23 -4z m80 -10 c-10 -2 -28 -2 -40 0 -13 2 -5 4 17 4 22 1 32 -1 23 -4z
m70 -10 c-10 -2 -26 -2 -35 0 -10 3 -2 5 17 5 19 0 27 -2 18 -5z m90 -10 c-10
-2 -28 -2 -40 0 -13 2 -5 4 17 4 22 1 32 -1 23 -4z m80 -10 c-10 -2 -28 -2
-40 0 -13 2 -5 4 17 4 22 1 32 -1 23 -4z m39 -90 c-3 -10 -5 -2 -5 17 0 19 2
27 5 18 2 -10 2 -26 0 -35z m-9240 -25 c-3 -8 -6 -5 -6 6 -1 11 2 17 5 13 3
-3 4 -12 1 -19z m9250 -45 c-3 -10 -5 -2 -5 17 0 19 2 27 5 18 2 -10 2 -26 0
-35z m-9230 -25 c-3 -8 -6 -5 -6 6 -1 11 2 17 5 13 3 -3 4 -12 1 -19z m9240
-45 c-3 -10 -5 -2 -5 17 0 19 2 27 5 18 2 -10 2 -26 0 -35z m-9230 5 c-3 -8
-6 -5 -6 6 -1 11 2 17 5 13 3 -3 4 -12 1 -19z m11071 -2 c106 -13 198 -28 205
-34 6 -5 237 -179 512 -387 275 -207 508 -385 519 -395 18 -17 13 -25 -163
-253 -99 -129 -185 -247 -191 -262 -12 -33 1 -84 28 -108 9 -8 98 -51 197 -95
649 -289 1207 -540 1212 -546 2 -1 -75 -22 -170 -46 -420 -105 -682 -200 -740
-270 -73 -86 -98 -186 -98 -389 1 -244 51 -546 155 -927 97 -352 190 -605 302
-825 99 -191 168 -257 309 -294 157 -40 391 8 650 134 216 106 342 206 365
292 9 34 3 62 -69 291 -44 139 -114 353 -155 475 -64 193 -72 223 -58 227 36
12 284 37 402 41 69 2 115 2 104 -1 -22 -5 -22 -5 18 -192 21 -103 66 -315 99
-472 33 -157 67 -323 75 -370 28 -160 83 -435 154 -770 78 -372 162 -786 211
-1045 18 -93 33 -171 34 -173 2 -2 19 7 39 19 20 11 36 19 36 16 0 -9 -333
-214 -565 -347 -268 -153 -635 -337 -890 -446 -216 -92 -590 -218 -811 -273
-206 -51 -458 -89 -417 -63 19 12 11 57 -162 887 -97 467 -139 672 -189 935
-19 102 -67 336 -106 520 -67 317 -95 456 -239 1175 -33 165 -94 462 -136 660
-42 198 -87 421 -101 495 -50 267 -216 1079 -304 1483 -17 75 -30 150 -30 165
0 15 -21 124 -45 242 -25 118 -72 343 -105 500 -32 157 -66 314 -74 350 -17
72 -20 100 -8 100 4 0 94 -11 200 -24z m-1831 -73 c-3 -10 -5 -2 -5 17 0 19 2
27 5 18 2 -10 2 -26 0 -35z m-9220 5 c-3 -8 -6 -5 -6 6 -1 11 2 17 5 13 3 -3
4 -12 1 -19z m9230 -65 c-3 -10 -5 -4 -5 12 0 17 2 24 5 18 2 -7 2 -21 0 -30z
m-9210 -5 c-3 -8 -6 -5 -6 6 -1 11 2 17 5 13 3 -3 4 -12 1 -19z m9220 -65 c-3
-10 -5 -4 -5 12 0 17 2 24 5 18 2 -7 2 -21 0 -30z m-9200 -5 c-3 -8 -6 -5 -6
6 -1 11 2 17 5 13 3 -3 4 -12 1 -19z m22 -68 c0 -9 -4 -8 -9 5 -5 11 -9 27 -9
35 0 9 4 8 9 -5 5 -11 9 -27 9 -35z m9188 3 c-3 -10 -5 -4 -5 12 0 17 2 24 5
18 2 -7 2 -21 0 -30z m10 -70 c-3 -10 -5 -2 -5 17 0 19 2 27 5 18 2 -10 2 -26
0 -35z m-9170 -35 c-3 -8 -6 -5 -6 6 -1 11 2 17 5 13 3 -3 4 -12 1 -19z m9180
-25 c-3 -10 -5 -4 -5 12 0 17 2 24 5 18 2 -7 2 -21 0 -30z m10 -60 c-3 -10 -5
-4 -5 12 0 17 2 24 5 18 2 -7 2 -21 0 -30z m-2430 -25 c-3 -7 -5 -2 -5 12 0
14 2 19 5 13 2 -7 2 -19 0 -25z m2440 -40 c-3 -7 -5 -2 -5 12 0 14 2 19 5 13
2 -7 2 -19 0 -25z m-2430 -35 c-3 -10 -5 -4 -5 12 0 17 2 24 5 18 2 -7 2 -21
0 -30z m-8157 -13 c156 -6 308 -10 337 -10 l52 0 -24 -62 c-80 -208 -324 -969
-410 -1283 -223 -812 -371 -1516 -489 -2330 -127 -876 -178 -1609 -179 -2560
0 -804 34 -1386 119 -2060 53 -414 154 -1004 225 -1313 36 -155 115 -447 135
-496 10 -27 -77 36 -306 219 -1155 922 -1765 2000 -1925 3402 l-15 132 40 233
c86 498 265 1336 395 1858 374 1491 850 2860 1440 4143 l68 148 126 -6 c69 -3
254 -10 411 -15z m10597 -12 c-3 -8 -6 -5 -6 6 -1 11 2 17 5 13 3 -3 4 -12 1
-19z m-2430 -45 c-3 -10 -5 -4 -5 12 0 17 2 24 5 18 2 -7 2 -21 0 -30z m-6925
20 l225 -6 22 -76 c80 -276 275 -860 426 -1276 223 -612 604 -1518 816 -1937
56 -110 84 -152 140 -212 86 -92 181 -157 314 -215 l101 -44 42 -201 c23 -110
69 -331 103 -491 33 -159 65 -319 71 -355 15 -95 67 -357 152 -760 42 -195 98
-472 127 -615 110 -553 213 -1060 235 -1154 5 -22 8 -23 62 -18 49 5 52 5 22
-4 -19 -6 -103 -13 -185 -16 -403 -15 -653 87 -965 397 -145 143 -216 229
-505 608 -225 296 -320 408 -466 547 -84 80 -100 102 -26 36 l29 -26 -6 25
c-19 85 -23 113 -19 130 3 11 0 20 -6 20 -7 0 -9 9 -5 25 4 16 2 25 -5 25 -7
0 -9 9 -5 25 4 16 2 25 -6 25 -7 0 -10 6 -7 13 3 8 -1 45 -9 83 -25 116 -131
623 -194 924 -32 157 -66 315 -74 352 -9 36 -13 73 -10 82 3 9 1 16 -5 16 -7
0 -9 9 -5 25 4 16 2 25 -5 25 -7 0 -9 9 -5 25 4 16 2 25 -6 25 -7 0 -10 6 -7
14 3 8 -10 88 -29 178 -80 381 -157 750 -208 992 -29 142 -51 267 -49 277 3
10 0 19 -6 19 -7 0 -9 9 -5 25 3 14 2 25 -3 25 -5 0 -10 12 -10 28 0 15 -26
146 -56 292 -31 146 -92 436 -136 645 -44 209 -84 399 -89 423 -6 23 -8 51 -5
62 3 11 0 20 -6 20 -7 0 -9 9 -5 25 4 16 2 25 -5 25 -7 0 -9 9 -5 25 4 16 2
25 -6 25 -7 0 -10 7 -6 15 3 9 -10 86 -29 173 -19 86 -52 245 -74 352 -22 107
-47 224 -55 260 -9 36 -16 68 -16 73 0 9 146 9 442 0z m6935 -100 c-3 -10 -5
-2 -5 17 0 19 2 27 5 18 2 -10 2 -26 0 -35z m10 -70 c-3 -10 -5 -4 -5 12 0 17
2 24 5 18 2 -7 2 -21 0 -30z m10 -70 c-3 -10 -5 -2 -5 17 0 19 2 27 5 18 2
-10 2 -26 0 -35z m10 -70 c-3 -10 -5 -2 -5 17 0 19 2 27 5 18 2 -10 2 -26 0
-35z m10 -70 c-3 -10 -5 -2 -5 17 0 19 2 27 5 18 2 -10 2 -26 0 -35z m10 -70
c-3 -10 -5 -2 -5 17 0 19 2 27 5 18 2 -10 2 -26 0 -35z m10 -70 c-3 -10 -5 -2
-5 17 0 19 2 27 5 18 2 -10 2 -26 0 -35z m10 -60 c-3 -10 -5 -4 -5 12 0 17 2
24 5 18 2 -7 2 -21 0 -30z m10 -70 c-3 -10 -5 -2 -5 17 0 19 2 27 5 18 2 -10
2 -26 0 -35z m10 -70 c-3 -10 -5 -2 -5 17 0 19 2 27 5 18 2 -10 2 -26 0 -35z
m2440 15 c-3 -8 -6 -5 -6 6 -1 11 2 17 5 13 3 -3 4 -12 1 -19z m-2430 -75 c-3
-10 -5 -4 -5 12 0 17 2 24 5 18 2 -7 2 -21 0 -30z m2450 -55 c-3 -7 -5 -2 -5
12 0 14 2 19 5 13 2 -7 2 -19 0 -25z m-2440 -15 c-3 -10 -5 -4 -5 12 0 17 2
24 5 18 2 -7 2 -21 0 -30z m2450 -45 c-3 -7 -5 -2 -5 12 0 14 2 19 5 13 2 -7
2 -19 0 -25z m-2440 -15 c-3 -10 -5 -4 -5 12 0 17 2 24 5 18 2 -7 2 -21 0 -30z
m2450 -55 c-3 -7 -5 -2 -5 12 0 14 2 19 5 13 2 -7 2 -19 0 -25z m-2440 -15
c-3 -10 -5 -4 -5 12 0 17 2 24 5 18 2 -7 2 -21 0 -30z m2450 -45 c-3 -7 -5 -2
-5 12 0 14 2 19 5 13 2 -7 2 -19 0 -25z m-2440 -20 c-3 -7 -5 -2 -5 12 0 14 2
19 5 13 2 -7 2 -19 0 -25z m2450 -40 c-3 -7 -5 -2 -5 12 0 14 2 19 5 13 2 -7
2 -19 0 -25z m-2440 -20 c-3 -8 -6 -5 -6 6 -1 11 2 17 5 13 3 -3 4 -12 1 -19z
m2450 -45 c-3 -10 -5 -4 -5 12 0 17 2 24 5 18 2 -7 2 -21 0 -30z m-2440 -15
c-3 -8 -6 -5 -6 6 -1 11 2 17 5 13 3 -3 4 -12 1 -19z m2450 -45 c-3 -10 -5 -4
-5 12 0 17 2 24 5 18 2 -7 2 -21 0 -30z m10 -60 c-3 -10 -5 -4 -5 12 0 17 2
24 5 18 2 -7 2 -21 0 -30z m10 -60 c-3 -10 -5 -4 -5 12 0 17 2 24 5 18 2 -7 2
-21 0 -30z m10 -60 c-3 -10 -5 -4 -5 12 0 17 2 24 5 18 2 -7 2 -21 0 -30z m10
-70 c-3 -10 -5 -2 -5 17 0 19 2 27 5 18 2 -10 2 -26 0 -35z m10 -60 c-3 -10
-5 -4 -5 12 0 17 2 24 5 18 2 -7 2 -21 0 -30z m10 -60 c-3 -10 -5 -4 -5 12 0
17 2 24 5 18 2 -7 2 -21 0 -30z m10 -60 c-3 -10 -5 -4 -5 12 0 17 2 24 5 18 2
-7 2 -21 0 -30z m10 -70 c-3 -10 -5 -2 -5 17 0 19 2 27 5 18 2 -10 2 -26 0
-35z m10 -60 c-3 -10 -5 -4 -5 12 0 17 2 24 5 18 2 -7 2 -21 0 -30z m10 -65
c-3 -7 -5 -2 -5 12 0 14 2 19 5 13 2 -7 2 -19 0 -25z m10 -65 c-3 -10 -5 -4
-5 12 0 17 2 24 5 18 2 -7 2 -21 0 -30z m-2430 -95 c-3 -8 -6 -5 -6 6 -1 11 2
17 5 13 3 -3 4 -12 1 -19z m2430 -45 c-3 -10 -5 -4 -5 12 0 17 2 24 5 18 2 -7
2 -21 0 -30z m-2420 -15 c-3 -7 -5 -2 -5 12 0 14 2 19 5 13 2 -7 2 -19 0 -25z
m2407 -42 c-3 -15 -8 -25 -11 -23 -2 3 -1 17 3 31 3 15 8 25 11 23 2 -3 1 -17
-3 -31z m-2397 -8 c-3 -7 -5 -2 -5 12 0 14 2 19 5 13 2 -7 2 -19 0 -25z m10
-55 c-3 -10 -5 -4 -5 12 0 17 2 24 5 18 2 -7 2 -21 0 -30z m2349 -30 c-14 -26
-25 -45 -26 -41 0 12 43 98 48 94 2 -2 -8 -26 -22 -53z m-2339 -25 c-3 -7 -5
-2 -5 12 0 14 2 19 5 13 2 -7 2 -19 0 -25z m10 -55 c-3 -10 -5 -4 -5 12 0 17
2 24 5 18 2 -7 2 -21 0 -30z m2273 -33 c-11 -22 -23 -40 -25 -40 -3 0 4 18 15
40 11 22 23 40 25 40 3 0 -4 -18 -15 -40z m-2263 -22 c-3 -7 -5 -2 -5 12 0 14
2 19 5 13 2 -7 2 -19 0 -25z m10 -50 c-3 -7 -5 -2 -5 12 0 14 2 19 5 13 2 -7
2 -19 0 -25z m10 -55 c-3 -10 -5 -4 -5 12 0 17 2 24 5 18 2 -7 2 -21 0 -30z
m10 -55 c-3 -7 -5 -2 -5 12 0 14 2 19 5 13 2 -7 2 -19 0 -25z m10 -50 c-3 -7
-5 -2 -5 12 0 14 2 19 5 13 2 -7 2 -19 0 -25z m10 -50 c-3 -7 -5 -2 -5 12 0
14 2 19 5 13 2 -7 2 -19 0 -25z m10 -50 c-3 -7 -5 -2 -5 12 0 14 2 19 5 13 2
-7 2 -19 0 -25z m1962 -53 c-18 -25 -40 -51 -48 -58 -8 -7 5 14 28 46 51 68
67 77 20 12z m-1952 3 c-3 -7 -5 -2 -5 12 0 14 2 19 5 13 2 -7 2 -19 0 -25z
m10 -50 c-3 -7 -5 -2 -5 12 0 14 2 19 5 13 2 -7 2 -19 0 -25z m10 -50 c-3 -8
-6 -5 -6 6 -1 11 2 17 5 13 3 -3 4 -12 1 -19z m1873 19 c0 -2 -10 -12 -22 -23
l-23 -19 19 23 c18 21 26 27 26 19z m-1863 -69 c-3 -7 -5 -2 -5 12 0 14 2 19
5 13 2 -7 2 -19 0 -25z m10 -40 c-3 -8 -6 -5 -6 6 -1 11 2 17 5 13 3 -3 4 -12
1 -19z m10 -50 c-3 -8 -6 -5 -6 6 -1 11 2 17 5 13 3 -3 4 -12 1 -19z m1673
-41 c0 -2 -19 -21 -42 -42 l-43 -40 40 43 c36 39 45 47 45 39z m-340 -330 c0
-2 -17 -19 -37 -38 l-38 -34 34 38 c33 34 41 42 41 34z m-80 -70 c0 -2 -12
-14 -27 -28 l-28 -24 24 28 c23 25 31 32 31 24z m-250 -201 c0 -2 -8 -10 -17
-17 -16 -13 -17 -12 -4 4 13 16 21 21 21 13z m-820 -61 c0 -5 -5 -3 -10 5 -5
8 -10 20 -10 25 0 6 5 3 10 -5 5 -8 10 -19 10 -25z m780 31 c0 -2 -8 -10 -17
-17 -16 -13 -17 -12 -4 4 13 16 21 21 21 13z m-40 -30 c0 -2 -8 -10 -17 -17
-16 -13 -17 -12 -4 4 13 16 21 21 21 13z m-710 -48 c15 -21 17 -28 6 -19 -16
13 -41 51 -33 51 2 0 14 -15 27 -32z m670 18 c0 -2 -8 -10 -17 -17 -16 -13
-17 -12 -4 4 13 16 21 21 21 13z m-616 -241 c32 -16 85 -36 118 -45 l60 -16
-68 -41 c-145 -85 -234 -121 -377 -152 l-87 -19 35 48 c64 87 135 275 135 356
0 20 9 15 63 -40 37 -36 88 -75 121 -91z m706 31 c0 -2 -8 -10 -17 -17 -16
-13 -17 -12 -4 4 13 16 21 21 21 13z m-56 -44 c-12 -9 -34 -26 -49 -37 l-27
-20 21 -110 c70 -369 95 -495 140 -710 28 -132 53 -250 56 -262 4 -17 -28 -60
-145 -197 -82 -96 -184 -205 -227 -241 -80 -69 -185 -145 -200 -145 -5 0 -37
123 -72 273 -73 314 -226 970 -236 1008 -6 24 -3 27 57 49 35 12 88 35 119 51
83 41 401 236 494 302 77 54 112 75 69 39z m-3934 -411 c274 -38 524 -66 765
-86 280 -23 267 -20 281 -80 15 -67 207 -885 366 -1560 71 -302 152 -649 179
-770 28 -121 93 -400 145 -620 53 -220 124 -526 159 -680 35 -154 115 -498
178 -765 63 -267 146 -622 185 -790 40 -168 112 -476 161 -685 49 -209 106
-457 128 -551 l39 -171 -111 39 c-60 21 -254 93 -430 158 -176 66 -437 162
-580 215 -143 53 -265 102 -271 108 -6 7 -23 68 -38 137 -16 69 -95 409 -176
755 -82 347 -158 673 -170 725 -12 52 -88 379 -169 725 -332 1410 -434 1843
-495 2110 -36 154 -97 415 -136 580 -39 165 -118 500 -175 745 -57 245 -106
458 -110 474 -8 28 -7 29 26 23 19 -4 131 -20 249 -36z m2969 -88 c19 -71 152
-638 201 -853 27 -118 101 -435 165 -705 64 -269 134 -569 155 -665 22 -96 87
-375 145 -620 59 -245 124 -524 145 -621 22 -97 93 -403 159 -680 66 -277 138
-585 160 -684 22 -99 89 -387 150 -640 60 -253 122 -516 136 -585 15 -69 90
-388 167 -709 93 -392 135 -587 128 -591 -12 -7 -193 -75 -1020 -384 -272
-101 -505 -187 -517 -190 -23 -7 -19 -22 -99 331 -18 83 -86 371 -150 640 -63
268 -157 670 -209 893 -52 223 -136 585 -188 805 -52 220 -111 472 -132 560
-20 88 -77 331 -126 540 -50 209 -135 571 -189 805 -54 234 -146 625 -203 870
-58 245 -180 767 -272 1160 -92 393 -198 843 -235 1000 -37 157 -67 286 -66
287 1 0 123 -3 271 -7 490 -15 1089 16 1360 70 22 4 43 8 47 9 4 1 12 -16 17
-36z m1251 -528 c-24 -25 -46 -45 -49 -45 -3 0 15 20 39 45 24 25 46 45 49 45
3 0 -15 -20 -39 -45z m3753 -1952 c-7 -2 -19 -2 -25 0 -7 3 -2 5 12 5 14 0 19
-2 13 -5z m-9436 -459 c-3 -3 -12 -4 -19 -1 -8 3 -5 6 6 6 11 1 17 -2 13 -5z
m2433 -3357 c398 -148 1198 -445 1488 -552 100 -37 185 -72 189 -79 9 -13 203
-828 200 -838 -1 -3 -45 10 -97 29 -192 71 -1019 380 -1497 559 -271 101 -496
184 -502 184 -5 0 -12 4 -16 9 -5 8 -155 808 -155 826 0 4 6 5 13 3 6 -3 176
-66 377 -141z m5140 -1139 c-40 -222 -78 -408 -84 -414 -6 -7 -713 -274 -1571
-594 -858 -320 -1659 -619 -1780 -665 -121 -45 -223 -80 -226 -76 -7 6 -159
680 -159 704 0 9 56 35 158 72 147 54 392 145 1442 535 234 86 616 228 850
315 428 159 1178 437 1345 500 50 18 92 31 94 29 2 -1 -29 -184 -69 -406z
m-5326 277 c-4 -8 -8 -15 -10 -15 -2 0 -4 7 -4 15 0 8 4 15 10 15 5 0 7 -7 4
-15z m3 -67 c-3 -7 -5 -2 -5 12 0 14 2 19 5 13 2 -7 2 -19 0 -25z m10 -50 c-3
-8 -6 -5 -6 6 -1 11 2 17 5 13 3 -3 4 -12 1 -19z m423 -28 c8 -5 11 -10 5 -10
-5 0 -17 5 -25 10 -8 5 -10 10 -5 10 6 0 17 -5 25 -10z m-413 -22 c-3 -8 -6
-5 -6 6 -1 11 2 17 5 13 3 -3 4 -12 1 -19z m493 -10 c10 -6 7 -7 -10 -2 -14 3
-32 11 -40 16 -10 6 -7 7 10 2 14 -3 32 -11 40 -16z m50 -18 c8 -5 11 -10 5
-10 -5 0 -17 5 -25 10 -8 5 -10 10 -5 10 6 0 17 -5 25 -10z m80 -30 c8 -5 11
-10 5 -10 -5 0 -17 5 -25 10 -8 5 -10 10 -5 10 6 0 17 -5 25 -10z m50 -20 c8
-5 11 -10 5 -10 -5 0 -17 5 -25 10 -8 5 -10 10 -5 10 6 0 17 -5 25 -10z m570
-210 c8 -5 11 -10 5 -10 -5 0 -17 5 -25 10 -8 5 -10 10 -5 10 6 0 17 -5 25
-10z m80 -30 c8 -5 11 -10 5 -10 -5 0 -17 5 -25 10 -8 5 -10 10 -5 10 6 0 17
-5 25 -10z m-1030 -20 c8 -5 11 -10 5 -10 -5 0 -17 5 -25 10 -8 5 -10 10 -5
10 6 0 17 -5 25 -10z m1080 0 c8 -5 11 -10 5 -10 -5 0 -17 5 -25 10 -8 5 -10
10 -5 10 6 0 17 -5 25 -10z m-1000 -30 c8 -5 11 -10 5 -10 -5 0 -17 5 -25 10
-8 5 -10 10 -5 10 6 0 17 -5 25 -10z m1080 0 c8 -5 11 -10 5 -10 -5 0 -17 5
-25 10 -8 5 -10 10 -5 10 6 0 17 -5 25 -10z m-1030 -20 c8 -5 11 -10 5 -10 -5
0 -17 5 -25 10 -8 5 -10 10 -5 10 6 0 17 -5 25 -10z m1080 0 c8 -5 11 -10 5
-10 -5 0 -17 5 -25 10 -8 5 -10 10 -5 10 6 0 17 -5 25 -10z m-707 -286 c367
-137 667 -251 667 -254 0 -3 -36 -18 -79 -33 -79 -29 -113 -54 -125 -94 -4
-13 22 -148 64 -335 39 -172 120 -531 180 -798 60 -267 149 -665 199 -885 516
-2289 540 -2395 528 -2395 -1 0 -72 -15 -157 -34 -723 -159 -1658 -237 -2850
-237 -1328 0 -2410 96 -3350 297 -91 20 -167 38 -169 40 -5 5 130 133 294 279
1010 900 2134 1522 3255 1800 389 97 686 140 1035 151 209 7 227 12 250 68 12
28 8 60 -40 321 -58 314 -203 1102 -345 1877 -50 268 -90 492 -90 498 0 6 12
5 33 -3 17 -7 332 -126 700 -263z m-293 256 c8 -5 11 -10 5 -10 -5 0 -17 5
-25 10 -8 5 -10 10 -5 10 6 0 17 -5 25 -10z m50 -20 c8 -5 11 -10 5 -10 -5 0
-17 5 -25 10 -8 5 -10 10 -5 10 6 0 17 -5 25 -10z m1515 -161 c11 -16 1 -19
-13 -3 -7 8 -8 14 -3 14 5 0 13 -5 16 -11z m-945 -49 c8 -5 11 -10 5 -10 -5 0
-17 5 -25 10 -8 5 -10 10 -5 10 6 0 17 -5 25 -10z m80 -30 c8 -5 11 -10 5 -10
-5 0 -17 5 -25 10 -8 5 -10 10 -5 10 6 0 17 -5 25 -10z m876 -15 c-11 -8 -25
-15 -30 -15 -6 1 0 7 14 15 32 19 40 18 16 0z m3109 5 c-3 -5 -12 -10 -18 -10
-7 0 -6 4 3 10 19 12 23 12 15 0z m-3905 -22 c10 -6 7 -7 -10 -2 -14 3 -32 11
-40 16 -10 6 -7 7 10 2 14 -3 32 -11 40 -16z m3830 -8 c-8 -5 -19 -10 -25 -10
-5 0 -3 5 5 10 8 5 20 10 25 10 6 0 3 -5 -5 -10z m-3780 -10 c8 -5 11 -10 5
-10 -5 0 -17 5 -25 10 -8 5 -10 10 -5 10 6 0 17 -5 25 -10z m660 0 c-8 -5 -19
-10 -25 -10 -5 0 -3 5 5 10 8 5 20 10 25 10 6 0 3 -5 -5 -10z m-610 -20 c8 -5
11 -10 5 -10 -5 0 -17 5 -25 10 -8 5 -10 10 -5 10 6 0 17 -5 25 -10z m560 0
c-8 -5 -19 -10 -25 -10 -5 0 -3 5 5 10 8 5 20 10 25 10 6 0 3 -5 -5 -10z
m2600 -180 c-8 -5 -19 -10 -25 -10 -5 0 -3 5 5 10 8 5 20 10 25 10 6 0 3 -5
-5 -10z m-50 -20 c-8 -5 -19 -10 -25 -10 -5 0 -3 5 5 10 8 5 20 10 25 10 6 0
3 -5 -5 -10z m-50 -19 c-8 -5 -26 -11 -40 -15 -21 -5 -20 -3 5 9 32 15 60 20
35 6z m-80 -31 c-8 -5 -19 -10 -25 -10 -5 0 -3 5 5 10 8 5 20 10 25 10 6 0 3
-5 -5 -10z m-80 -30 c-8 -5 -19 -10 -25 -10 -5 0 -3 5 5 10 8 5 20 10 25 10 6
0 3 -5 -5 -10z m-570 -210 c-8 -5 -19 -10 -25 -10 -5 0 -3 5 5 10 8 5 20 10
25 10 6 0 3 -5 -5 -10z m-50 -20 c-8 -5 -19 -10 -25 -10 -5 0 -3 5 5 10 8 5
20 10 25 10 6 0 3 -5 -5 -10z m-80 -30 c-8 -5 -19 -10 -25 -10 -5 0 -3 5 5 10
8 5 20 10 25 10 6 0 3 -5 -5 -10z m1080 0 c-8 -5 -19 -10 -25 -10 -5 0 -3 5 5
10 8 5 20 10 25 10 6 0 3 -5 -5 -10z m420 -1 c0 -13 -142 -793 -246 -1354
-138 -740 -234 -1279 -234 -1307 0 -19 10 -40 29 -59 29 -28 32 -29 133 -29
455 0 1036 -106 1588 -290 1042 -346 1998 -930 2943 -1798 81 -74 147 -139
147 -143 0 -14 -326 -82 -670 -139 -568 -94 -1209 -156 -1995 -191 -338 -16
-1370 -16 -1690 0 -1007 48 -1772 147 -2290 295 -178 51 -169 46 -184 108 -6
29 -66 292 -131 583 -65 292 -173 771 -239 1065 -229 1015 -371 1646 -415
1840 -24 107 -41 198 -37 202 6 7 193 77 986 373 275 103 685 256 910 340 226
84 617 230 870 325 253 94 469 175 480 180 28 12 45 12 45 -1z m-1550 -19 c-8
-5 -19 -10 -25 -10 -5 0 -3 5 5 10 8 5 20 10 25 10 6 0 3 -5 -5 -10z m1080 0
c-8 -5 -19 -10 -25 -10 -5 0 -3 5 5 10 8 5 20 10 25 10 6 0 3 -5 -5 -10z
m-1160 -30 c-8 -5 -19 -10 -25 -10 -5 0 -3 5 5 10 8 5 20 10 25 10 6 0 3 -5
-5 -10z m1080 0 c-8 -5 -19 -10 -25 -10 -5 0 -3 5 5 10 8 5 20 10 25 10 6 0 3
-5 -5 -10z m-50 -20 c-8 -5 -19 -10 -25 -10 -5 0 -3 5 5 10 8 5 20 10 25 10 6
0 3 -5 -5 -10z m-80 -30 c-8 -5 -19 -10 -25 -10 -5 0 -3 5 5 10 8 5 20 10 25
10 6 0 3 -5 -5 -10z m-1520 -160 c-8 -5 -19 -10 -25 -10 -5 0 -3 5 5 10 8 5
20 10 25 10 6 0 3 -5 -5 -10z m-50 -20 c-8 -5 -19 -10 -25 -10 -5 0 -3 5 5 10
8 5 20 10 25 10 6 0 3 -5 -5 -10z m-80 -30 c-8 -5 -19 -10 -25 -10 -5 0 -3 5
5 10 8 5 20 10 25 10 6 0 3 -5 -5 -10z m-50 -19 c-8 -5 -26 -11 -40 -15 -21
-5 -20 -3 5 9 32 15 60 20 35 6z m1080 -1 c-8 -5 -19 -10 -25 -10 -5 0 -3 5 5
10 8 5 20 10 25 10 6 0 3 -5 -5 -10z m-1160 -30 c-8 -5 -19 -10 -25 -10 -5 0
-3 5 5 10 8 5 20 10 25 10 6 0 3 -5 -5 -10z m1080 0 c-8 -5 -19 -10 -25 -10
-5 0 -3 5 5 10 8 5 20 10 25 10 6 0 3 -5 -5 -10z m-50 -19 c-8 -5 -26 -11 -40
-15 -21 -5 -20 -3 5 9 32 15 60 20 35 6z m-80 -31 c-8 -5 -19 -10 -25 -10 -5
0 -3 5 5 10 8 5 20 10 25 10 6 0 3 -5 -5 -10z m-1520 -160 c-8 -5 -19 -10 -25
-10 -5 0 -3 5 5 10 8 5 20 10 25 10 6 0 3 -5 -5 -10z m-50 -19 c-8 -5 -26 -11
-40 -15 -21 -5 -20 -3 5 9 32 15 60 20 35 6z m-80 -31 c-8 -5 -19 -10 -25 -10
-5 0 -3 5 5 10 8 5 20 10 25 10 6 0 3 -5 -5 -10z m1080 0 c-8 -5 -19 -10 -25
-10 -5 0 -3 5 5 10 8 5 20 10 25 10 6 0 3 -5 -5 -10z m-1130 -19 c-8 -5 -26
-11 -40 -15 -21 -5 -20 -3 5 9 32 15 60 20 35 6z m1080 0 c-8 -5 -26 -11 -40
-15 -21 -5 -20 -3 5 9 32 15 60 20 35 6z m-1160 -31 c-8 -5 -19 -10 -25 -10
-5 0 -3 5 5 10 8 5 20 10 25 10 6 0 3 -5 -5 -10z m1080 0 c-8 -5 -19 -10 -25
-10 -5 0 -3 5 5 10 8 5 20 10 25 10 6 0 3 -5 -5 -10z m-50 -19 c-8 -5 -26 -11
-40 -15 -21 -5 -20 -3 5 9 32 15 60 20 35 6z m-1110 -11 c-8 -5 -19 -10 -25
-10 -5 0 -3 5 5 10 8 5 20 10 25 10 6 0 3 -5 -5 -10z m1030 -20 c-8 -5 -19
-10 -25 -10 -5 0 -3 5 5 10 8 5 20 10 25 10 6 0 3 -5 -5 -10z m-1013 -222 c-3
-8 -6 -5 -6 6 -1 11 2 17 5 13 3 -3 4 -12 1 -19z m443 12 c-8 -5 -19 -10 -25
-10 -5 0 -3 5 5 10 8 5 20 10 25 10 6 0 3 -5 -5 -10z m-50 -19 c-8 -5 -26 -11
-40 -15 -21 -5 -20 -3 5 9 32 15 60 20 35 6z m-383 -33 c-3 -8 -6 -5 -6 6 -1
11 2 17 5 13 3 -3 4 -12 1 -19z m303 2 c-8 -5 -19 -10 -25 -10 -5 0 -3 5 5 10
8 5 20 10 25 10 6 0 3 -5 -5 -10z m-50 -19 c-8 -5 -26 -11 -40 -15 -21 -5 -20
-3 5 9 32 15 60 20 35 6z m-243 -23 c-3 -8 -6 -5 -6 6 -1 11 2 17 5 13 3 -3 4
-12 1 -19z m163 -8 c-8 -5 -19 -10 -25 -10 -5 0 -3 5 5 10 8 5 20 10 25 10 6
0 3 -5 -5 -10z m-148 -35 c3 -13 1 -22 -3 -19 -9 5 -13 44 -5 44 2 0 6 -11 8
-25z"/>
<path d="M11743 33569 c-471 -42 -826 -300 -1047 -759 -51 -105 -142 -357
-133 -366 2 -3 38 11 79 30 252 115 573 171 839 147 242 -22 413 -71 634 -181
436 -217 792 -618 1084 -1221 71 -147 181 -408 225 -533 4 -10 8 -17 10 -15 5
6 -21 314 -39 469 -119 1007 -374 1700 -774 2101 -198 198 -395 298 -641 329
-93 11 -103 11 -237 -1z"/>
<path d="M10390 33233 c-398 -8 -904 -40 -1250 -79 -227 -25 -538 -69 -546
-77 -3 -2 26 -23 64 -45 37 -22 101 -66 141 -97 l73 -57 207 26 c393 49 859
81 1345 93 l288 6 34 54 c19 29 54 77 77 105 24 29 46 59 51 66 7 12 -112 13
-484 5z"/>
<path d="M8069 33099 c-482 -114 -800 -825 -915 -2043 -8 -92 -13 -170 -10
-173 6 -7 5 -11 46 132 89 312 242 636 402 853 183 248 423 429 676 511 146
47 211 56 417 55 193 0 279 -12 428 -57 60 -19 61 -11 12 87 -135 274 -473
555 -752 627 -81 20 -236 25 -304 8z"/>
<path d="M9685 32289 c-700 -20 -1633 -82 -1689 -111 -38 -20 -140 -105 -201
-168 l-60 -62 65 5 c36 4 160 15 275 26 400 39 821 67 1350 93 346 17 1765 17
2095 0 326 -16 711 -41 895 -57 83 -7 152 -10 155 -8 6 6 -88 95 -181 169
l-70 57 -102 8 c-659 50 -1751 71 -2532 48z"/>
<path d="M11214 29975 c-329 -71 -660 -411 -924 -950 -210 -429 -362 -900
-474 -1474 -175 -888 -189 -1875 -39 -2621 145 -722 429 -1214 776 -1345 461
-173 950 220 1335 1075 330 732 520 1673 539 2660 18 989 -147 1790 -468 2270
-202 303 -475 444 -745 385z m247 -131 c96 -28 170 -75 260 -164 304 -299 506
-924 570 -1760 15 -200 15 -736 0 -955 -42 -601 -142 -1157 -300 -1671 -51
-166 -122 -366 -128 -361 -2 3 3 39 11 81 43 207 60 395 60 681 1 175 -4 319
-12 385 -58 468 -211 776 -416 840 -101 32 -234 -17 -343 -128 -317 -320 -532
-1102 -510 -1847 14 -441 96 -766 244 -962 67 -90 167 -153 242 -153 l26 0
-30 -24 c-51 -41 -177 -104 -245 -121 -85 -22 -213 -16 -289 14 -400 160 -690
840 -783 1836 -20 215 -17 931 5 1165 82 873 265 1608 552 2216 239 507 547
851 831 929 68 18 190 18 255 -1z"/>
<path d="M8063 29905 c-553 -155 -1044 -1411 -1190 -3040 -14 -160 -18 -298
-17 -690 0 -514 6 -624 55 -960 58 -406 186 -803 323 -1005 l38 -55 -29 -23
c-135 -114 -153 -133 -153 -165 1 -50 24 -72 70 -68 8 0 51 33 95 71 197 174
428 293 648 335 170 32 417 10 622 -56 143 -45 331 -128 442 -194 213 -128
498 -365 673 -562 44 -50 88 -94 96 -97 41 -16 92 40 76 83 -13 36 -198 237
-314 341 -252 227 -528 405 -796 511 -85 34 -306 93 -390 104 -29 4 -52 10
-50 14 2 3 26 49 55 102 231 423 441 1136 543 1844 66 465 93 835 94 1285 0
923 -134 1600 -394 1985 -130 193 -327 288 -497 240z m217 -144 c248 -127 446
-646 519 -1366 64 -618 31 -1442 -85 -2130 -47 -278 -159 -774 -185 -814 -7
-12 -9 -8 -5 14 37 210 44 792 13 1000 -43 287 -106 462 -201 563 -43 46 -77
62 -133 62 -248 -1 -499 -572 -588 -1340 -22 -189 -30 -574 -16 -740 20 -232
62 -434 115 -553 23 -53 24 -58 8 -64 -78 -27 -201 -82 -266 -120 l-80 -46
-19 24 c-58 72 -137 237 -187 390 -122 371 -184 816 -197 1389 -22 1042 176
2204 509 2984 175 413 388 689 586 763 55 20 158 12 212 -16z"/>
<path d="M7089 23873 c-13 -16 -12 -17 4 -4 9 7 17 15 17 17 0 8 -8 3 -21 -13z"/>
<path d="M11510 23571 c-555 -207 -3000 -1293 -3795 -1686 -374 -184 -469
-240 -479 -280 -21 -85 129 -505 304 -850 443 -874 1000 -1398 1630 -1532 130
-28 419 -25 560 6 347 74 652 242 910 501 422 423 715 1106 869 2025 73 433
106 798 132 1465 5 146 12 279 15 295 6 34 -17 70 -51 79 -11 2 -54 -8 -95
-23z m5 -293 c-4 -90 -10 -166 -14 -169 -41 -41 -419 -356 -588 -492 -542
-433 -1001 -759 -1538 -1094 -419 -261 -641 -377 -859 -448 -306 -100 -517
-100 -724 1 -153 75 -273 211 -361 411 -17 39 -31 78 -31 86 0 45 1124 571
2675 1252 615 269 1414 610 1438 614 5 0 6 -72 2 -161z"/>
<path d="M5944 21133 c2 -10 10 -37 17 -61 7 -23 14 -40 16 -38 5 5 -27 116
-33 116 -3 0 -3 -8 0 -17z"/>
<path d="M6262 20140 c0 -8 8 -37 18 -65 10 -27 18 -43 18 -35 0 8 -8 38 -18
65 -10 28 -18 43 -18 35z"/>
</g>
</svg>
